<mxfile host="app.diagrams.net" agent="Mozilla/5.0 (Windows NT 10.0; Win64; x64) AppleWebKit/537.36 (KHTML, like Gecko) Chrome/134.0.0.0 Safari/537.36" version="26.1.3" pages="2">
  <diagram id="_2nrGqbs9a6KQLAFMnZw" name="DCD">
    <mxGraphModel dx="2240" dy="1152" grid="1" gridSize="10" guides="1" tooltips="1" connect="1" arrows="1" fold="1" page="1" pageScale="1" pageWidth="827" pageHeight="1169" math="0" shadow="0">
      <root>
        <mxCell id="0" />
        <mxCell id="1" parent="0" />
        <mxCell id="bo5SSvQVIFfWiV_Lwgm2-1" value="LoginWindow" style="swimlane;fontStyle=1;align=center;verticalAlign=top;childLayout=stackLayout;horizontal=1;startSize=26;horizontalStack=0;resizeParent=1;resizeParentMax=0;resizeLast=0;collapsible=1;marginBottom=0;whiteSpace=wrap;html=1;" parent="1" vertex="1">
          <mxGeometry x="80" y="40" width="160" height="86" as="geometry" />
        </mxCell>
        <mxCell id="bo5SSvQVIFfWiV_Lwgm2-2" value="+ field: type" style="text;strokeColor=none;fillColor=none;align=left;verticalAlign=top;spacingLeft=4;spacingRight=4;overflow=hidden;rotatable=0;points=[[0,0.5],[1,0.5]];portConstraint=eastwest;whiteSpace=wrap;html=1;" parent="bo5SSvQVIFfWiV_Lwgm2-1" vertex="1">
          <mxGeometry y="26" width="160" height="26" as="geometry" />
        </mxCell>
        <mxCell id="bo5SSvQVIFfWiV_Lwgm2-3" value="" style="line;strokeWidth=1;fillColor=none;align=left;verticalAlign=middle;spacingTop=-1;spacingLeft=3;spacingRight=3;rotatable=0;labelPosition=right;points=[];portConstraint=eastwest;strokeColor=inherit;" parent="bo5SSvQVIFfWiV_Lwgm2-1" vertex="1">
          <mxGeometry y="52" width="160" height="8" as="geometry" />
        </mxCell>
        <mxCell id="bo5SSvQVIFfWiV_Lwgm2-4" value="+ method(type): type" style="text;strokeColor=none;fillColor=none;align=left;verticalAlign=top;spacingLeft=4;spacingRight=4;overflow=hidden;rotatable=0;points=[[0,0.5],[1,0.5]];portConstraint=eastwest;whiteSpace=wrap;html=1;" parent="bo5SSvQVIFfWiV_Lwgm2-1" vertex="1">
          <mxGeometry y="60" width="160" height="26" as="geometry" />
        </mxCell>
        <mxCell id="bo5SSvQVIFfWiV_Lwgm2-5" value="TravelBuilder.razor?*" style="swimlane;fontStyle=1;align=center;verticalAlign=top;childLayout=stackLayout;horizontal=1;startSize=26;horizontalStack=0;resizeParent=1;resizeParentMax=0;resizeLast=0;collapsible=1;marginBottom=0;whiteSpace=wrap;html=1;" parent="1" vertex="1">
          <mxGeometry x="500" y="40" width="240" height="112" as="geometry" />
        </mxCell>
        <mxCell id="l9xUXGm3okjoMGRfIjiB-3" value="+ FromDate : DateTime?" style="text;strokeColor=none;fillColor=none;align=left;verticalAlign=top;spacingLeft=4;spacingRight=4;overflow=hidden;rotatable=0;points=[[0,0.5],[1,0.5]];portConstraint=eastwest;whiteSpace=wrap;html=1;" parent="bo5SSvQVIFfWiV_Lwgm2-5" vertex="1">
          <mxGeometry y="26" width="240" height="26" as="geometry" />
        </mxCell>
        <mxCell id="baUHyHVCnXek6jq96v-b-5" value="+ ToDate : DateTime?" style="text;strokeColor=none;fillColor=none;align=left;verticalAlign=top;spacingLeft=4;spacingRight=4;overflow=hidden;rotatable=0;points=[[0,0.5],[1,0.5]];portConstraint=eastwest;whiteSpace=wrap;html=1;" vertex="1" parent="bo5SSvQVIFfWiV_Lwgm2-5">
          <mxGeometry y="52" width="240" height="26" as="geometry" />
        </mxCell>
        <mxCell id="bo5SSvQVIFfWiV_Lwgm2-7" value="" style="line;strokeWidth=1;fillColor=none;align=left;verticalAlign=middle;spacingTop=-1;spacingLeft=3;spacingRight=3;rotatable=0;labelPosition=right;points=[];portConstraint=eastwest;strokeColor=inherit;" parent="bo5SSvQVIFfWiV_Lwgm2-5" vertex="1">
          <mxGeometry y="78" width="240" height="8" as="geometry" />
        </mxCell>
        <mxCell id="bo5SSvQVIFfWiV_Lwgm2-8" value="&amp;lt;&amp;lt;constructor&amp;gt;&amp;gt;&amp;nbsp;" style="text;strokeColor=none;fillColor=none;align=left;verticalAlign=top;spacingLeft=4;spacingRight=4;overflow=hidden;rotatable=0;points=[[0,0.5],[1,0.5]];portConstraint=eastwest;whiteSpace=wrap;html=1;" parent="bo5SSvQVIFfWiV_Lwgm2-5" vertex="1">
          <mxGeometry y="86" width="240" height="26" as="geometry" />
        </mxCell>
        <mxCell id="bo5SSvQVIFfWiV_Lwgm2-9" value="LoginVM" style="swimlane;fontStyle=1;align=center;verticalAlign=top;childLayout=stackLayout;horizontal=1;startSize=26;horizontalStack=0;resizeParent=1;resizeParentMax=0;resizeLast=0;collapsible=1;marginBottom=0;whiteSpace=wrap;html=1;" parent="1" vertex="1">
          <mxGeometry x="80" y="320" width="160" height="86" as="geometry" />
        </mxCell>
        <mxCell id="bo5SSvQVIFfWiV_Lwgm2-10" value="+ field: type" style="text;strokeColor=none;fillColor=none;align=left;verticalAlign=top;spacingLeft=4;spacingRight=4;overflow=hidden;rotatable=0;points=[[0,0.5],[1,0.5]];portConstraint=eastwest;whiteSpace=wrap;html=1;" parent="bo5SSvQVIFfWiV_Lwgm2-9" vertex="1">
          <mxGeometry y="26" width="160" height="26" as="geometry" />
        </mxCell>
        <mxCell id="bo5SSvQVIFfWiV_Lwgm2-11" value="" style="line;strokeWidth=1;fillColor=none;align=left;verticalAlign=middle;spacingTop=-1;spacingLeft=3;spacingRight=3;rotatable=0;labelPosition=right;points=[];portConstraint=eastwest;strokeColor=inherit;" parent="bo5SSvQVIFfWiV_Lwgm2-9" vertex="1">
          <mxGeometry y="52" width="160" height="8" as="geometry" />
        </mxCell>
        <mxCell id="bo5SSvQVIFfWiV_Lwgm2-12" value="+ method(type): type" style="text;strokeColor=none;fillColor=none;align=left;verticalAlign=top;spacingLeft=4;spacingRight=4;overflow=hidden;rotatable=0;points=[[0,0.5],[1,0.5]];portConstraint=eastwest;whiteSpace=wrap;html=1;" parent="bo5SSvQVIFfWiV_Lwgm2-9" vertex="1">
          <mxGeometry y="60" width="160" height="26" as="geometry" />
        </mxCell>
        <mxCell id="s6iV7nOVtGMCOM8b2m9M-7" value="" style="edgeStyle=orthogonalEdgeStyle;rounded=0;orthogonalLoop=1;jettySize=auto;html=1;entryX=0.215;entryY=-0.009;entryDx=0;entryDy=0;entryPerimeter=0;" parent="1" source="bo5SSvQVIFfWiV_Lwgm2-13" target="tnhocRQcM_d4h_FGvi7k-6" edge="1">
          <mxGeometry relative="1" as="geometry">
            <mxPoint x="565" y="540" as="targetPoint" />
          </mxGeometry>
        </mxCell>
        <mxCell id="bo5SSvQVIFfWiV_Lwgm2-13" value="FlightDTO" style="swimlane;fontStyle=1;align=center;verticalAlign=top;childLayout=stackLayout;horizontal=1;startSize=26;horizontalStack=0;resizeParent=1;resizeParentMax=0;resizeLast=0;collapsible=1;marginBottom=0;whiteSpace=wrap;html=1;" parent="1" vertex="1">
          <mxGeometry x="460" y="240" width="230" height="190" as="geometry" />
        </mxCell>
        <mxCell id="bo5SSvQVIFfWiV_Lwgm2-14" value="+ DepartureDate : DateTime" style="text;strokeColor=none;fillColor=none;align=left;verticalAlign=top;spacingLeft=4;spacingRight=4;overflow=hidden;rotatable=0;points=[[0,0.5],[1,0.5]];portConstraint=eastwest;whiteSpace=wrap;html=1;" parent="bo5SSvQVIFfWiV_Lwgm2-13" vertex="1">
          <mxGeometry y="26" width="230" height="26" as="geometry" />
        </mxCell>
        <mxCell id="l9xUXGm3okjoMGRfIjiB-2" value="+ Origin : string" style="text;strokeColor=none;fillColor=none;align=left;verticalAlign=top;spacingLeft=4;spacingRight=4;overflow=hidden;rotatable=0;points=[[0,0.5],[1,0.5]];portConstraint=eastwest;whiteSpace=wrap;html=1;" parent="bo5SSvQVIFfWiV_Lwgm2-13" vertex="1">
          <mxGeometry y="52" width="230" height="26" as="geometry" />
        </mxCell>
        <mxCell id="baUHyHVCnXek6jq96v-b-2" value="+ Destination : string" style="text;strokeColor=none;fillColor=none;align=left;verticalAlign=top;spacingLeft=4;spacingRight=4;overflow=hidden;rotatable=0;points=[[0,0.5],[1,0.5]];portConstraint=eastwest;whiteSpace=wrap;html=1;" vertex="1" parent="bo5SSvQVIFfWiV_Lwgm2-13">
          <mxGeometry y="78" width="230" height="26" as="geometry" />
        </mxCell>
        <mxCell id="baUHyHVCnXek6jq96v-b-3" value="+ Price : double?" style="text;strokeColor=none;fillColor=none;align=left;verticalAlign=top;spacingLeft=4;spacingRight=4;overflow=hidden;rotatable=0;points=[[0,0.5],[1,0.5]];portConstraint=eastwest;whiteSpace=wrap;html=1;" vertex="1" parent="bo5SSvQVIFfWiV_Lwgm2-13">
          <mxGeometry y="104" width="230" height="26" as="geometry" />
        </mxCell>
        <mxCell id="baUHyHVCnXek6jq96v-b-4" value="+ FlightNumber : string?" style="text;strokeColor=none;fillColor=none;align=left;verticalAlign=top;spacingLeft=4;spacingRight=4;overflow=hidden;rotatable=0;points=[[0,0.5],[1,0.5]];portConstraint=eastwest;whiteSpace=wrap;html=1;" vertex="1" parent="bo5SSvQVIFfWiV_Lwgm2-13">
          <mxGeometry y="130" width="230" height="26" as="geometry" />
        </mxCell>
        <mxCell id="bo5SSvQVIFfWiV_Lwgm2-15" value="" style="line;strokeWidth=1;fillColor=none;align=left;verticalAlign=middle;spacingTop=-1;spacingLeft=3;spacingRight=3;rotatable=0;labelPosition=right;points=[];portConstraint=eastwest;strokeColor=inherit;" parent="bo5SSvQVIFfWiV_Lwgm2-13" vertex="1">
          <mxGeometry y="156" width="230" height="8" as="geometry" />
        </mxCell>
        <mxCell id="bo5SSvQVIFfWiV_Lwgm2-16" value="- S" style="text;strokeColor=none;fillColor=none;align=left;verticalAlign=top;spacingLeft=4;spacingRight=4;overflow=hidden;rotatable=0;points=[[0,0.5],[1,0.5]];portConstraint=eastwest;whiteSpace=wrap;html=1;" parent="bo5SSvQVIFfWiV_Lwgm2-13" vertex="1">
          <mxGeometry y="164" width="230" height="26" as="geometry" />
        </mxCell>
        <mxCell id="bo5SSvQVIFfWiV_Lwgm2-25" value="LoginRepo" style="swimlane;fontStyle=1;align=center;verticalAlign=top;childLayout=stackLayout;horizontal=1;startSize=26;horizontalStack=0;resizeParent=1;resizeParentMax=0;resizeLast=0;collapsible=1;marginBottom=0;whiteSpace=wrap;html=1;" parent="1" vertex="1">
          <mxGeometry x="30" y="873" width="160" height="86" as="geometry" />
        </mxCell>
        <mxCell id="bo5SSvQVIFfWiV_Lwgm2-26" value="+ field: type" style="text;strokeColor=none;fillColor=none;align=left;verticalAlign=top;spacingLeft=4;spacingRight=4;overflow=hidden;rotatable=0;points=[[0,0.5],[1,0.5]];portConstraint=eastwest;whiteSpace=wrap;html=1;" parent="bo5SSvQVIFfWiV_Lwgm2-25" vertex="1">
          <mxGeometry y="26" width="160" height="26" as="geometry" />
        </mxCell>
        <mxCell id="bo5SSvQVIFfWiV_Lwgm2-27" value="" style="line;strokeWidth=1;fillColor=none;align=left;verticalAlign=middle;spacingTop=-1;spacingLeft=3;spacingRight=3;rotatable=0;labelPosition=right;points=[];portConstraint=eastwest;strokeColor=inherit;" parent="bo5SSvQVIFfWiV_Lwgm2-25" vertex="1">
          <mxGeometry y="52" width="160" height="8" as="geometry" />
        </mxCell>
        <mxCell id="bo5SSvQVIFfWiV_Lwgm2-28" value="+ method(type): type" style="text;strokeColor=none;fillColor=none;align=left;verticalAlign=top;spacingLeft=4;spacingRight=4;overflow=hidden;rotatable=0;points=[[0,0.5],[1,0.5]];portConstraint=eastwest;whiteSpace=wrap;html=1;" parent="bo5SSvQVIFfWiV_Lwgm2-25" vertex="1">
          <mxGeometry y="60" width="160" height="26" as="geometry" />
        </mxCell>
        <mxCell id="bo5SSvQVIFfWiV_Lwgm2-63" value="Client" style="shape=umlFrame;whiteSpace=wrap;html=1;pointerEvents=0;width=80;height=30;" parent="1" vertex="1">
          <mxGeometry width="1640" height="200" as="geometry" />
        </mxCell>
        <mxCell id="bo5SSvQVIFfWiV_Lwgm2-64" value="Shared" style="shape=umlFrame;whiteSpace=wrap;html=1;pointerEvents=0;width=80;height=30;" parent="1" vertex="1">
          <mxGeometry y="200" width="1640" height="300" as="geometry" />
        </mxCell>
        <mxCell id="bo5SSvQVIFfWiV_Lwgm2-65" value="Server" style="shape=umlFrame;whiteSpace=wrap;html=1;pointerEvents=0;width=80;height=30;" parent="1" vertex="1">
          <mxGeometry y="500" width="1640" height="1110" as="geometry" />
        </mxCell>
        <mxCell id="IFbbEQ-6FJ6GLovj2k8C-5" value="OfferRequest" style="swimlane;fontStyle=1;align=center;verticalAlign=top;childLayout=stackLayout;horizontal=1;startSize=26;horizontalStack=0;resizeParent=1;resizeParentMax=0;resizeLast=0;collapsible=1;marginBottom=0;whiteSpace=wrap;html=1;" parent="1" vertex="1">
          <mxGeometry x="720" y="1130" width="210" height="86" as="geometry" />
        </mxCell>
        <mxCell id="1P-GVoEKbpmLQCLgcFKr-3" value="+ O" style="text;strokeColor=none;fillColor=none;align=left;verticalAlign=top;spacingLeft=4;spacingRight=4;overflow=hidden;rotatable=0;points=[[0,0.5],[1,0.5]];portConstraint=eastwest;whiteSpace=wrap;html=1;" parent="IFbbEQ-6FJ6GLovj2k8C-5" vertex="1">
          <mxGeometry y="26" width="210" height="26" as="geometry" />
        </mxCell>
        <mxCell id="IFbbEQ-6FJ6GLovj2k8C-7" value="" style="line;strokeWidth=1;fillColor=none;align=left;verticalAlign=middle;spacingTop=-1;spacingLeft=3;spacingRight=3;rotatable=0;labelPosition=right;points=[];portConstraint=eastwest;strokeColor=inherit;" parent="IFbbEQ-6FJ6GLovj2k8C-5" vertex="1">
          <mxGeometry y="52" width="210" height="8" as="geometry" />
        </mxCell>
        <mxCell id="IFbbEQ-6FJ6GLovj2k8C-8" value="+ m" style="text;strokeColor=none;fillColor=none;align=left;verticalAlign=top;spacingLeft=4;spacingRight=4;overflow=hidden;rotatable=0;points=[[0,0.5],[1,0.5]];portConstraint=eastwest;whiteSpace=wrap;html=1;" parent="IFbbEQ-6FJ6GLovj2k8C-5" vertex="1">
          <mxGeometry y="60" width="210" height="26" as="geometry" />
        </mxCell>
        <mxCell id="IFbbEQ-6FJ6GLovj2k8C-13" value="IRepository&amp;lt;T&amp;gt;" style="swimlane;fontStyle=1;align=center;verticalAlign=top;childLayout=stackLayout;horizontal=1;startSize=26;horizontalStack=0;resizeParent=1;resizeParentMax=0;resizeLast=0;collapsible=1;marginBottom=0;whiteSpace=wrap;html=1;" parent="1" vertex="1">
          <mxGeometry x="1050" y="530" width="300" height="216" as="geometry" />
        </mxCell>
        <mxCell id="IFbbEQ-6FJ6GLovj2k8C-15" value="" style="line;strokeWidth=1;fillColor=none;align=left;verticalAlign=middle;spacingTop=-1;spacingLeft=3;spacingRight=3;rotatable=0;labelPosition=right;points=[];portConstraint=eastwest;strokeColor=inherit;" parent="IFbbEQ-6FJ6GLovj2k8C-13" vertex="1">
          <mxGeometry y="26" width="300" height="8" as="geometry" />
        </mxCell>
        <mxCell id="IFbbEQ-6FJ6GLovj2k8C-16" value="+ GetAll(): ObservableCollection&amp;lt;T&amp;gt;" style="text;strokeColor=none;fillColor=none;align=left;verticalAlign=top;spacingLeft=4;spacingRight=4;overflow=hidden;rotatable=0;points=[[0,0.5],[1,0.5]];portConstraint=eastwest;whiteSpace=wrap;html=1;" parent="IFbbEQ-6FJ6GLovj2k8C-13" vertex="1">
          <mxGeometry y="34" width="300" height="26" as="geometry" />
        </mxCell>
        <mxCell id="kcjF0Bzhrz3PN26yfvxr-6" value="- GetStringFromDB() : String" style="text;strokeColor=none;fillColor=none;align=left;verticalAlign=top;spacingLeft=4;spacingRight=4;overflow=hidden;rotatable=0;points=[[0,0.5],[1,0.5]];portConstraint=eastwest;whiteSpace=wrap;html=1;" parent="IFbbEQ-6FJ6GLovj2k8C-13" vertex="1">
          <mxGeometry y="60" width="300" height="26" as="geometry" />
        </mxCell>
        <mxCell id="kcjF0Bzhrz3PN26yfvxr-5" value="- FromStringToType(reader : SqlDataReader) : T" style="text;strokeColor=none;fillColor=none;align=left;verticalAlign=top;spacingLeft=4;spacingRight=4;overflow=hidden;rotatable=0;points=[[0,0.5],[1,0.5]];portConstraint=eastwest;whiteSpace=wrap;html=1;" parent="IFbbEQ-6FJ6GLovj2k8C-13" vertex="1">
          <mxGeometry y="86" width="300" height="26" as="geometry" />
        </mxCell>
        <mxCell id="kcjF0Bzhrz3PN26yfvxr-7" value="+ GetById(id : Int) : T" style="text;strokeColor=none;fillColor=none;align=left;verticalAlign=top;spacingLeft=4;spacingRight=4;overflow=hidden;rotatable=0;points=[[0,0.5],[1,0.5]];portConstraint=eastwest;whiteSpace=wrap;html=1;" parent="IFbbEQ-6FJ6GLovj2k8C-13" vertex="1">
          <mxGeometry y="112" width="300" height="26" as="geometry" />
        </mxCell>
        <mxCell id="kcjF0Bzhrz3PN26yfvxr-11" value="+ Add(entity : T)" style="text;strokeColor=none;fillColor=none;align=left;verticalAlign=top;spacingLeft=4;spacingRight=4;overflow=hidden;rotatable=0;points=[[0,0.5],[1,0.5]];portConstraint=eastwest;whiteSpace=wrap;html=1;" parent="IFbbEQ-6FJ6GLovj2k8C-13" vertex="1">
          <mxGeometry y="138" width="300" height="26" as="geometry" />
        </mxCell>
        <mxCell id="kcjF0Bzhrz3PN26yfvxr-12" value="+ Remove(entity&amp;nbsp;: T)" style="text;strokeColor=none;fillColor=none;align=left;verticalAlign=top;spacingLeft=4;spacingRight=4;overflow=hidden;rotatable=0;points=[[0,0.5],[1,0.5]];portConstraint=eastwest;whiteSpace=wrap;html=1;" parent="IFbbEQ-6FJ6GLovj2k8C-13" vertex="1">
          <mxGeometry y="164" width="300" height="26" as="geometry" />
        </mxCell>
        <mxCell id="kcjF0Bzhrz3PN26yfvxr-10" value="+ Update(entity&amp;nbsp;: T)" style="text;strokeColor=none;fillColor=none;align=left;verticalAlign=top;spacingLeft=4;spacingRight=4;overflow=hidden;rotatable=0;points=[[0,0.5],[1,0.5]];portConstraint=eastwest;whiteSpace=wrap;html=1;" parent="IFbbEQ-6FJ6GLovj2k8C-13" vertex="1">
          <mxGeometry y="190" width="300" height="26" as="geometry" />
        </mxCell>
        <mxCell id="tnhocRQcM_d4h_FGvi7k-2" value="" style="endArrow=classic;html=1;rounded=0;" parent="1" source="bo5SSvQVIFfWiV_Lwgm2-8" target="bo5SSvQVIFfWiV_Lwgm2-13" edge="1">
          <mxGeometry width="50" height="50" relative="1" as="geometry">
            <mxPoint x="520" y="320" as="sourcePoint" />
            <mxPoint x="570" y="270" as="targetPoint" />
          </mxGeometry>
        </mxCell>
        <mxCell id="tnhocRQcM_d4h_FGvi7k-3" value="" style="endArrow=classic;html=1;rounded=0;" parent="1" source="bo5SSvQVIFfWiV_Lwgm2-4" target="bo5SSvQVIFfWiV_Lwgm2-9" edge="1">
          <mxGeometry width="50" height="50" relative="1" as="geometry">
            <mxPoint x="610" y="130" as="sourcePoint" />
            <mxPoint x="457" y="330" as="targetPoint" />
          </mxGeometry>
        </mxCell>
        <mxCell id="tnhocRQcM_d4h_FGvi7k-6" value="FlightBuilderController" style="swimlane;fontStyle=1;align=center;verticalAlign=top;childLayout=stackLayout;horizontal=1;startSize=26;horizontalStack=0;resizeParent=1;resizeParentMax=0;resizeLast=0;collapsible=1;marginBottom=0;whiteSpace=wrap;html=1;" parent="1" vertex="1">
          <mxGeometry x="440" y="560" width="580" height="160" as="geometry" />
        </mxCell>
        <mxCell id="tnhocRQcM_d4h_FGvi7k-8" value="- _flightHttpClient : HttpClient" style="text;strokeColor=none;fillColor=none;align=left;verticalAlign=top;spacingLeft=4;spacingRight=4;overflow=hidden;rotatable=0;points=[[0,0.5],[1,0.5]];portConstraint=eastwest;whiteSpace=wrap;html=1;" parent="tnhocRQcM_d4h_FGvi7k-6" vertex="1">
          <mxGeometry y="26" width="580" height="26" as="geometry" />
        </mxCell>
        <mxCell id="baUHyHVCnXek6jq96v-b-6" value="- _offerService : OfferService" style="text;strokeColor=none;fillColor=none;align=left;verticalAlign=top;spacingLeft=4;spacingRight=4;overflow=hidden;rotatable=0;points=[[0,0.5],[1,0.5]];portConstraint=eastwest;whiteSpace=wrap;html=1;" vertex="1" parent="tnhocRQcM_d4h_FGvi7k-6">
          <mxGeometry y="52" width="580" height="26" as="geometry" />
        </mxCell>
        <mxCell id="tnhocRQcM_d4h_FGvi7k-7" value="" style="line;strokeWidth=1;fillColor=none;align=left;verticalAlign=middle;spacingTop=-1;spacingLeft=3;spacingRight=3;rotatable=0;labelPosition=right;points=[];portConstraint=eastwest;strokeColor=inherit;" parent="tnhocRQcM_d4h_FGvi7k-6" vertex="1">
          <mxGeometry y="78" width="580" height="4" as="geometry" />
        </mxCell>
        <mxCell id="tnhocRQcM_d4h_FGvi7k-12" value="&amp;lt;&amp;lt;constructor&amp;gt;&amp;gt;FlightBuilderController(HttpClient)" style="text;strokeColor=none;fillColor=none;align=left;verticalAlign=top;spacingLeft=4;spacingRight=4;overflow=hidden;rotatable=0;points=[[0,0.5],[1,0.5]];portConstraint=eastwest;whiteSpace=wrap;html=1;" parent="tnhocRQcM_d4h_FGvi7k-6" vertex="1">
          <mxGeometry y="82" width="580" height="26" as="geometry" />
        </mxCell>
        <mxCell id="baUHyHVCnXek6jq96v-b-7" value="+ PostCreate(FlightDTO, FlightDTO) : Task&amp;lt;List&amp;lt;FlightDTO&amp;gt;&amp;gt;" style="text;strokeColor=none;fillColor=none;align=left;verticalAlign=top;spacingLeft=4;spacingRight=4;overflow=hidden;rotatable=0;points=[[0,0.5],[1,0.5]];portConstraint=eastwest;whiteSpace=wrap;html=1;" vertex="1" parent="tnhocRQcM_d4h_FGvi7k-6">
          <mxGeometry y="108" width="580" height="26" as="geometry" />
        </mxCell>
        <mxCell id="baUHyHVCnXek6jq96v-b-14" value="- CreateOfferRequest(FlightDTO) : OfferRequest" style="text;strokeColor=none;fillColor=none;align=left;verticalAlign=top;spacingLeft=4;spacingRight=4;overflow=hidden;rotatable=0;points=[[0,0.5],[1,0.5]];portConstraint=eastwest;whiteSpace=wrap;html=1;" vertex="1" parent="tnhocRQcM_d4h_FGvi7k-6">
          <mxGeometry y="134" width="580" height="26" as="geometry" />
        </mxCell>
        <mxCell id="tnhocRQcM_d4h_FGvi7k-33" value="" style="endArrow=classic;html=1;rounded=0;entryX=0.409;entryY=0.017;entryDx=0;entryDy=0;entryPerimeter=0;exitX=0.482;exitY=1.145;exitDx=0;exitDy=0;exitPerimeter=0;" parent="1" edge="1" source="baUHyHVCnXek6jq96v-b-14">
          <mxGeometry width="50" height="50" relative="1" as="geometry">
            <mxPoint x="710" y="820" as="sourcePoint" />
            <mxPoint x="710.79" y="877.1139999999998" as="targetPoint" />
          </mxGeometry>
        </mxCell>
        <mxCell id="tnhocRQcM_d4h_FGvi7k-38" value="" style="endArrow=block;html=1;rounded=0;entryX=0.507;entryY=0.992;entryDx=0;entryDy=0;entryPerimeter=0;endFill=0;exitX=0.287;exitY=-0.006;exitDx=0;exitDy=0;exitPerimeter=0;" parent="1" source="l9xUXGm3okjoMGRfIjiB-31" target="kcjF0Bzhrz3PN26yfvxr-10" edge="1">
          <mxGeometry width="50" height="50" relative="1" as="geometry">
            <mxPoint x="1390" y="870" as="sourcePoint" />
            <mxPoint x="920" y="860" as="targetPoint" />
            <Array as="points">
              <mxPoint x="1390" y="800" />
              <mxPoint x="1280" y="800" />
              <mxPoint x="1170" y="800" />
            </Array>
          </mxGeometry>
        </mxCell>
        <mxCell id="tnhocRQcM_d4h_FGvi7k-44" value="" style="endArrow=classic;html=1;rounded=0;exitX=0.497;exitY=1.077;exitDx=0;exitDy=0;exitPerimeter=0;" parent="1" source="l9xUXGm3okjoMGRfIjiB-14" target="IFbbEQ-6FJ6GLovj2k8C-5" edge="1">
          <mxGeometry width="50" height="50" relative="1" as="geometry">
            <mxPoint x="776.1199999999999" y="1047.1499999999999" as="sourcePoint" />
            <mxPoint x="630" y="950" as="targetPoint" />
          </mxGeometry>
        </mxCell>
        <mxCell id="tnhocRQcM_d4h_FGvi7k-47" value="" style="endArrow=classic;html=1;rounded=0;exitX=0.425;exitY=1.049;exitDx=0;exitDy=0;exitPerimeter=0;entryX=0.58;entryY=0.033;entryDx=0;entryDy=0;entryPerimeter=0;" parent="1" source="bo5SSvQVIFfWiV_Lwgm2-12" target="bo5SSvQVIFfWiV_Lwgm2-25" edge="1">
          <mxGeometry width="50" height="50" relative="1" as="geometry">
            <mxPoint x="630" y="680" as="sourcePoint" />
            <mxPoint x="680" y="630" as="targetPoint" />
          </mxGeometry>
        </mxCell>
        <mxCell id="l9xUXGm3okjoMGRfIjiB-9" value="OfferService" style="swimlane;fontStyle=1;align=center;verticalAlign=top;childLayout=stackLayout;horizontal=1;startSize=26;horizontalStack=0;resizeParent=1;resizeParentMax=0;resizeLast=0;collapsible=1;marginBottom=0;whiteSpace=wrap;html=1;" parent="1" vertex="1">
          <mxGeometry x="590" y="880" width="330" height="112" as="geometry" />
        </mxCell>
        <mxCell id="l9xUXGm3okjoMGRfIjiB-10" value="- _httpClient : HttpClient" style="text;strokeColor=none;fillColor=none;align=left;verticalAlign=top;spacingLeft=4;spacingRight=4;overflow=hidden;rotatable=0;points=[[0,0.5],[1,0.5]];portConstraint=eastwest;whiteSpace=wrap;html=1;" parent="l9xUXGm3okjoMGRfIjiB-9" vertex="1">
          <mxGeometry y="26" width="330" height="26" as="geometry" />
        </mxCell>
        <mxCell id="l9xUXGm3okjoMGRfIjiB-12" value="" style="line;strokeWidth=1;fillColor=none;align=left;verticalAlign=middle;spacingTop=-1;spacingLeft=3;spacingRight=3;rotatable=0;labelPosition=right;points=[];portConstraint=eastwest;strokeColor=inherit;" parent="l9xUXGm3okjoMGRfIjiB-9" vertex="1">
          <mxGeometry y="52" width="330" height="8" as="geometry" />
        </mxCell>
        <mxCell id="l9xUXGm3okjoMGRfIjiB-13" value="&amp;lt;&amp;lt;constructor&amp;gt;&amp;gt;OfferService(HttpClient)" style="text;strokeColor=none;fillColor=none;align=left;verticalAlign=top;spacingLeft=4;spacingRight=4;overflow=hidden;rotatable=0;points=[[0,0.5],[1,0.5]];portConstraint=eastwest;whiteSpace=wrap;html=1;" parent="l9xUXGm3okjoMGRfIjiB-9" vertex="1">
          <mxGeometry y="60" width="330" height="26" as="geometry" />
        </mxCell>
        <mxCell id="l9xUXGm3okjoMGRfIjiB-14" value="+ PostOfferAsync(OfferRequest) : Task&amp;lt;OfferResponse&amp;gt;" style="text;strokeColor=none;fillColor=none;align=left;verticalAlign=top;spacingLeft=4;spacingRight=4;overflow=hidden;rotatable=0;points=[[0,0.5],[1,0.5]];portConstraint=eastwest;whiteSpace=wrap;html=1;" parent="l9xUXGm3okjoMGRfIjiB-9" vertex="1">
          <mxGeometry y="86" width="330" height="26" as="geometry" />
        </mxCell>
        <mxCell id="l9xUXGm3okjoMGRfIjiB-31" value="IncidentRepo&amp;lt;T&amp;gt;" style="swimlane;fontStyle=1;align=center;verticalAlign=top;childLayout=stackLayout;horizontal=1;startSize=26;horizontalStack=0;resizeParent=1;resizeParentMax=0;resizeLast=0;collapsible=1;marginBottom=0;whiteSpace=wrap;html=1;" parent="1" vertex="1">
          <mxGeometry x="1310" y="880" width="280" height="272" as="geometry" />
        </mxCell>
        <mxCell id="l9xUXGm3okjoMGRfIjiB-32" value="- connectionString : String" style="text;strokeColor=none;fillColor=none;align=left;verticalAlign=top;spacingLeft=4;spacingRight=4;overflow=hidden;rotatable=0;points=[[0,0.5],[1,0.5]];portConstraint=eastwest;whiteSpace=wrap;html=1;" parent="l9xUXGm3okjoMGRfIjiB-31" vertex="1">
          <mxGeometry y="26" width="280" height="26" as="geometry" />
        </mxCell>
        <mxCell id="l9xUXGm3okjoMGRfIjiB-33" value="- getAllQuery : String" style="text;strokeColor=none;fillColor=none;align=left;verticalAlign=top;spacingLeft=4;spacingRight=4;overflow=hidden;rotatable=0;points=[[0,0.5],[1,0.5]];portConstraint=eastwest;whiteSpace=wrap;html=1;" parent="l9xUXGm3okjoMGRfIjiB-31" vertex="1">
          <mxGeometry y="52" width="280" height="26" as="geometry" />
        </mxCell>
        <mxCell id="l9xUXGm3okjoMGRfIjiB-34" value="" style="line;strokeWidth=1;fillColor=none;align=left;verticalAlign=middle;spacingTop=-1;spacingLeft=3;spacingRight=3;rotatable=0;labelPosition=right;points=[];portConstraint=eastwest;strokeColor=inherit;" parent="l9xUXGm3okjoMGRfIjiB-31" vertex="1">
          <mxGeometry y="78" width="280" height="8" as="geometry" />
        </mxCell>
        <mxCell id="l9xUXGm3okjoMGRfIjiB-35" value="+ GetAll() : ObservableCollection&amp;lt;T&amp;gt;" style="text;strokeColor=none;fillColor=none;align=left;verticalAlign=top;spacingLeft=4;spacingRight=4;overflow=hidden;rotatable=0;points=[[0,0.5],[1,0.5]];portConstraint=eastwest;whiteSpace=wrap;html=1;" parent="l9xUXGm3okjoMGRfIjiB-31" vertex="1">
          <mxGeometry y="86" width="280" height="26" as="geometry" />
        </mxCell>
        <mxCell id="l9xUXGm3okjoMGRfIjiB-36" value="+ GetStringFromDB() : String" style="text;strokeColor=none;fillColor=none;align=left;verticalAlign=top;spacingLeft=4;spacingRight=4;overflow=hidden;rotatable=0;points=[[0,0.5],[1,0.5]];portConstraint=eastwest;whiteSpace=wrap;html=1;" parent="l9xUXGm3okjoMGRfIjiB-31" vertex="1">
          <mxGeometry y="112" width="280" height="26" as="geometry" />
        </mxCell>
        <mxCell id="l9xUXGm3okjoMGRfIjiB-37" value="+ FromStringToType(reader : SqlDataReader) : T" style="text;strokeColor=none;fillColor=none;align=left;verticalAlign=top;spacingLeft=4;spacingRight=4;overflow=hidden;rotatable=0;points=[[0,0.5],[1,0.5]];portConstraint=eastwest;whiteSpace=wrap;html=1;" parent="l9xUXGm3okjoMGRfIjiB-31" vertex="1">
          <mxGeometry y="138" width="280" height="22" as="geometry" />
        </mxCell>
        <mxCell id="l9xUXGm3okjoMGRfIjiB-38" value="+ GetById(id : Int) : T" style="text;strokeColor=none;fillColor=none;align=left;verticalAlign=top;spacingLeft=4;spacingRight=4;overflow=hidden;rotatable=0;points=[[0,0.5],[1,0.5]];portConstraint=eastwest;whiteSpace=wrap;html=1;" parent="l9xUXGm3okjoMGRfIjiB-31" vertex="1">
          <mxGeometry y="160" width="280" height="26" as="geometry" />
        </mxCell>
        <mxCell id="l9xUXGm3okjoMGRfIjiB-39" value="+ Update(entity : T)" style="text;strokeColor=none;fillColor=none;align=left;verticalAlign=top;spacingLeft=4;spacingRight=4;overflow=hidden;rotatable=0;points=[[0,0.5],[1,0.5]];portConstraint=eastwest;whiteSpace=wrap;html=1;" parent="l9xUXGm3okjoMGRfIjiB-31" vertex="1">
          <mxGeometry y="186" width="280" height="26" as="geometry" />
        </mxCell>
        <mxCell id="l9xUXGm3okjoMGRfIjiB-40" value="+ Remove(entity : T)" style="text;strokeColor=none;fillColor=none;align=left;verticalAlign=top;spacingLeft=4;spacingRight=4;overflow=hidden;rotatable=0;points=[[0,0.5],[1,0.5]];portConstraint=eastwest;whiteSpace=wrap;html=1;" parent="l9xUXGm3okjoMGRfIjiB-31" vertex="1">
          <mxGeometry y="212" width="280" height="26" as="geometry" />
        </mxCell>
        <mxCell id="l9xUXGm3okjoMGRfIjiB-41" value="+ Add(entity : T)" style="text;strokeColor=none;fillColor=none;align=left;verticalAlign=top;spacingLeft=4;spacingRight=4;overflow=hidden;rotatable=0;points=[[0,0.5],[1,0.5]];portConstraint=eastwest;whiteSpace=wrap;html=1;" parent="l9xUXGm3okjoMGRfIjiB-31" vertex="1">
          <mxGeometry y="238" width="280" height="34" as="geometry" />
        </mxCell>
        <mxCell id="OcjqTpMdtT_-P3vu3Izj-1" value="Program.cs?????*" style="swimlane;fontStyle=1;align=center;verticalAlign=top;childLayout=stackLayout;horizontal=1;startSize=26;horizontalStack=0;resizeParent=1;resizeParentMax=0;resizeLast=0;collapsible=1;marginBottom=0;whiteSpace=wrap;html=1;" parent="1" vertex="1">
          <mxGeometry x="790" y="40" width="240" height="86" as="geometry" />
        </mxCell>
        <mxCell id="OcjqTpMdtT_-P3vu3Izj-2" value="+ cvm : CreateVM" style="text;strokeColor=none;fillColor=none;align=left;verticalAlign=top;spacingLeft=4;spacingRight=4;overflow=hidden;rotatable=0;points=[[0,0.5],[1,0.5]];portConstraint=eastwest;whiteSpace=wrap;html=1;" parent="OcjqTpMdtT_-P3vu3Izj-1" vertex="1">
          <mxGeometry y="26" width="240" height="26" as="geometry" />
        </mxCell>
        <mxCell id="OcjqTpMdtT_-P3vu3Izj-3" value="" style="line;strokeWidth=1;fillColor=none;align=left;verticalAlign=middle;spacingTop=-1;spacingLeft=3;spacingRight=3;rotatable=0;labelPosition=right;points=[];portConstraint=eastwest;strokeColor=inherit;" parent="OcjqTpMdtT_-P3vu3Izj-1" vertex="1">
          <mxGeometry y="52" width="240" height="8" as="geometry" />
        </mxCell>
        <mxCell id="OcjqTpMdtT_-P3vu3Izj-4" value="&amp;lt;&amp;lt;constructor&amp;gt;&amp;gt; CreateWindow()" style="text;strokeColor=none;fillColor=none;align=left;verticalAlign=top;spacingLeft=4;spacingRight=4;overflow=hidden;rotatable=0;points=[[0,0.5],[1,0.5]];portConstraint=eastwest;whiteSpace=wrap;html=1;" parent="OcjqTpMdtT_-P3vu3Izj-1" vertex="1">
          <mxGeometry y="60" width="240" height="26" as="geometry" />
        </mxCell>
        <mxCell id="baUHyHVCnXek6jq96v-b-16" value="OfferRequest" style="swimlane;fontStyle=1;align=center;verticalAlign=top;childLayout=stackLayout;horizontal=1;startSize=26;horizontalStack=0;resizeParent=1;resizeParentMax=0;resizeLast=0;collapsible=1;marginBottom=0;whiteSpace=wrap;html=1;" vertex="1" parent="1">
          <mxGeometry x="460" y="1130" width="230" height="86" as="geometry" />
        </mxCell>
        <mxCell id="baUHyHVCnXek6jq96v-b-17" value="+ O" style="text;strokeColor=none;fillColor=none;align=left;verticalAlign=top;spacingLeft=4;spacingRight=4;overflow=hidden;rotatable=0;points=[[0,0.5],[1,0.5]];portConstraint=eastwest;whiteSpace=wrap;html=1;" vertex="1" parent="baUHyHVCnXek6jq96v-b-16">
          <mxGeometry y="26" width="230" height="26" as="geometry" />
        </mxCell>
        <mxCell id="baUHyHVCnXek6jq96v-b-18" value="" style="line;strokeWidth=1;fillColor=none;align=left;verticalAlign=middle;spacingTop=-1;spacingLeft=3;spacingRight=3;rotatable=0;labelPosition=right;points=[];portConstraint=eastwest;strokeColor=inherit;" vertex="1" parent="baUHyHVCnXek6jq96v-b-16">
          <mxGeometry y="52" width="230" height="8" as="geometry" />
        </mxCell>
        <mxCell id="baUHyHVCnXek6jq96v-b-19" value="+ m" style="text;strokeColor=none;fillColor=none;align=left;verticalAlign=top;spacingLeft=4;spacingRight=4;overflow=hidden;rotatable=0;points=[[0,0.5],[1,0.5]];portConstraint=eastwest;whiteSpace=wrap;html=1;" vertex="1" parent="baUHyHVCnXek6jq96v-b-16">
          <mxGeometry y="60" width="230" height="26" as="geometry" />
        </mxCell>
        <mxCell id="baUHyHVCnXek6jq96v-b-20" value="" style="endArrow=classic;html=1;rounded=0;exitX=0.494;exitY=1.077;exitDx=0;exitDy=0;exitPerimeter=0;" edge="1" parent="1" source="l9xUXGm3okjoMGRfIjiB-14" target="baUHyHVCnXek6jq96v-b-16">
          <mxGeometry width="50" height="50" relative="1" as="geometry">
            <mxPoint x="764" y="1004" as="sourcePoint" />
            <mxPoint x="753" y="1256" as="targetPoint" />
          </mxGeometry>
        </mxCell>
      </root>
    </mxGraphModel>
  </diagram>
  <diagram id="QA3IteXMH6sUnrIho07_" name="SD">
    <mxGraphModel dx="1843" dy="757" grid="1" gridSize="10" guides="1" tooltips="1" connect="1" arrows="1" fold="1" page="1" pageScale="1" pageWidth="827" pageHeight="1169" math="0" shadow="0">
      <root>
        <mxCell id="0" />
        <mxCell id="1" parent="0" />
        <mxCell id="rtp2ecGyMh40Dg3YMN1x-1" style="edgeStyle=orthogonalEdgeStyle;rounded=0;orthogonalLoop=1;jettySize=auto;html=1;dashed=1;endArrow=none;endFill=0;" parent="1" source="rtp2ecGyMh40Dg3YMN1x-2" edge="1">
          <mxGeometry relative="1" as="geometry">
            <mxPoint x="140" y="930" as="targetPoint" />
          </mxGeometry>
        </mxCell>
        <mxCell id="rtp2ecGyMh40Dg3YMN1x-2" value=": TravelBuilder" style="rounded=0;whiteSpace=wrap;html=1;" parent="1" vertex="1">
          <mxGeometry x="80" y="130" width="120" height="60" as="geometry" />
        </mxCell>
        <mxCell id="rtp2ecGyMh40Dg3YMN1x-3" style="edgeStyle=orthogonalEdgeStyle;rounded=0;orthogonalLoop=1;jettySize=auto;html=1;dashed=1;endArrow=none;endFill=0;" parent="1" source="rtp2ecGyMh40Dg3YMN1x-4" edge="1">
          <mxGeometry relative="1" as="geometry">
            <mxPoint x="460" y="930" as="targetPoint" />
          </mxGeometry>
        </mxCell>
        <mxCell id="rtp2ecGyMh40Dg3YMN1x-4" value=": FlightBuilderController" style="rounded=0;whiteSpace=wrap;html=1;" parent="1" vertex="1">
          <mxGeometry x="400" y="130" width="120" height="60" as="geometry" />
        </mxCell>
        <mxCell id="rtp2ecGyMh40Dg3YMN1x-5" style="edgeStyle=orthogonalEdgeStyle;rounded=0;orthogonalLoop=1;jettySize=auto;html=1;dashed=1;endArrow=none;endFill=0;" parent="1" source="rtp2ecGyMh40Dg3YMN1x-6" edge="1">
          <mxGeometry relative="1" as="geometry">
            <mxPoint x="780" y="930" as="targetPoint" />
          </mxGeometry>
        </mxCell>
        <mxCell id="rtp2ecGyMh40Dg3YMN1x-6" value=": OfferService" style="rounded=0;whiteSpace=wrap;html=1;" parent="1" vertex="1">
          <mxGeometry x="720" y="130" width="120" height="60" as="geometry" />
        </mxCell>
        <mxCell id="rtp2ecGyMh40Dg3YMN1x-7" style="edgeStyle=orthogonalEdgeStyle;rounded=0;orthogonalLoop=1;jettySize=auto;html=1;dashed=1;endArrow=none;endFill=0;movable=0;resizable=0;rotatable=0;deletable=0;editable=0;locked=1;connectable=0;" parent="1" source="rtp2ecGyMh40Dg3YMN1x-8" edge="1">
          <mxGeometry relative="1" as="geometry">
            <mxPoint x="1100" y="940" as="targetPoint" />
          </mxGeometry>
        </mxCell>
        <mxCell id="rtp2ecGyMh40Dg3YMN1x-8" value=": API" style="rounded=0;whiteSpace=wrap;html=1;" parent="1" vertex="1">
          <mxGeometry x="1040" y="130" width="120" height="60" as="geometry" />
        </mxCell>
        <mxCell id="rtp2ecGyMh40Dg3YMN1x-9" value="SearchFlight" style="html=1;verticalAlign=bottom;startArrow=oval;startFill=1;endArrow=block;startSize=8;curved=0;rounded=0;" parent="1" target="rtp2ecGyMh40Dg3YMN1x-10" edge="1">
          <mxGeometry x="0.0057" width="60" relative="1" as="geometry">
            <mxPoint x="10" y="220" as="sourcePoint" />
            <mxPoint x="100" y="230" as="targetPoint" />
            <Array as="points">
              <mxPoint x="110" y="220" />
            </Array>
            <mxPoint as="offset" />
          </mxGeometry>
        </mxCell>
        <mxCell id="rtp2ecGyMh40Dg3YMN1x-10" value="" style="html=1;points=[[0,0,0,0,5],[0,1,0,0,-5],[1,0,0,0,5],[1,1,0,0,-5]];perimeter=orthogonalPerimeter;outlineConnect=0;targetShapes=umlLifeline;portConstraint=eastwest;newEdgeStyle={&quot;curved&quot;:0,&quot;rounded&quot;:0};" parent="1" vertex="1">
          <mxGeometry x="135" y="220" width="10" height="480" as="geometry" />
        </mxCell>
        <mxCell id="rtp2ecGyMh40Dg3YMN1x-11" value="" style="html=1;points=[[0,0,0,0,5],[0,1,0,0,-5],[1,0,0,0,5],[1,1,0,0,-5]];perimeter=orthogonalPerimeter;outlineConnect=0;targetShapes=umlLifeline;portConstraint=eastwest;newEdgeStyle={&quot;curved&quot;:0,&quot;rounded&quot;:0};" parent="1" vertex="1">
          <mxGeometry x="455" y="240" width="10" height="460" as="geometry" />
        </mxCell>
        <mxCell id="rtp2ecGyMh40Dg3YMN1x-12" value="" style="endArrow=classic;html=1;rounded=0;" parent="1" target="rtp2ecGyMh40Dg3YMN1x-11" edge="1">
          <mxGeometry width="50" height="50" relative="1" as="geometry">
            <mxPoint x="145" y="239.99999999999997" as="sourcePoint" />
            <mxPoint x="340" y="239.99999999999997" as="targetPoint" />
          </mxGeometry>
        </mxCell>
        <mxCell id="rtp2ecGyMh40Dg3YMN1x-13" value="Create(FlightDTO, FlightDTO)" style="edgeLabel;html=1;align=center;verticalAlign=middle;resizable=0;points=[];" parent="rtp2ecGyMh40Dg3YMN1x-12" vertex="1" connectable="0">
          <mxGeometry x="-0.2141" y="-2" relative="1" as="geometry">
            <mxPoint x="23" y="-12" as="offset" />
          </mxGeometry>
        </mxCell>
        <mxCell id="rtp2ecGyMh40Dg3YMN1x-14" value="" style="endArrow=open;html=1;rounded=0;dashed=1;dashPattern=8 8;endFill=0;" parent="1" edge="1">
          <mxGeometry width="50" height="50" relative="1" as="geometry">
            <mxPoint x="455" y="699" as="sourcePoint" />
            <mxPoint x="145" y="699" as="targetPoint" />
          </mxGeometry>
        </mxCell>
        <mxCell id="r41l6Ee3IsO7vTxfdCU9-19" value="List&amp;lt;FlightDTO&amp;gt;" style="edgeLabel;html=1;align=center;verticalAlign=middle;resizable=0;points=[];" vertex="1" connectable="0" parent="rtp2ecGyMh40Dg3YMN1x-14">
          <mxGeometry x="0.0301" y="-2" relative="1" as="geometry">
            <mxPoint x="1" y="-8" as="offset" />
          </mxGeometry>
        </mxCell>
        <mxCell id="rtp2ecGyMh40Dg3YMN1x-20" value="" style="html=1;points=[[0,0,0,0,5],[0,1,0,0,-5],[1,0,0,0,5],[1,1,0,0,-5]];perimeter=orthogonalPerimeter;outlineConnect=0;targetShapes=umlLifeline;portConstraint=eastwest;newEdgeStyle={&quot;curved&quot;:0,&quot;rounded&quot;:0};" parent="1" vertex="1">
          <mxGeometry x="775" y="459" width="10" height="90" as="geometry" />
        </mxCell>
        <mxCell id="rtp2ecGyMh40Dg3YMN1x-23" value="" style="html=1;points=[[0,0,0,0,5],[0,1,0,0,-5],[1,0,0,0,5],[1,1,0,0,-5]];perimeter=orthogonalPerimeter;outlineConnect=0;targetShapes=umlLifeline;portConstraint=eastwest;newEdgeStyle={&quot;curved&quot;:0,&quot;rounded&quot;:0};" parent="1" vertex="1">
          <mxGeometry x="1095" y="479" width="10" height="40" as="geometry" />
        </mxCell>
        <mxCell id="r41l6Ee3IsO7vTxfdCU9-1" value="" style="endArrow=classic;html=1;rounded=0;" edge="1" parent="1">
          <mxGeometry width="50" height="50" relative="1" as="geometry">
            <mxPoint x="465" y="255" as="sourcePoint" />
            <mxPoint x="470" y="290" as="targetPoint" />
            <Array as="points">
              <mxPoint x="510" y="255" />
              <mxPoint x="510" y="290" />
            </Array>
          </mxGeometry>
        </mxCell>
        <mxCell id="r41l6Ee3IsO7vTxfdCU9-2" value="CreateOfferRequest(FlightDTO)" style="edgeLabel;html=1;align=center;verticalAlign=middle;resizable=0;points=[];" vertex="1" connectable="0" parent="r41l6Ee3IsO7vTxfdCU9-1">
          <mxGeometry x="-0.6417" y="-1" relative="1" as="geometry">
            <mxPoint x="103" y="14" as="offset" />
          </mxGeometry>
        </mxCell>
        <mxCell id="r41l6Ee3IsO7vTxfdCU9-3" value="" style="endArrow=classic;html=1;rounded=0;" edge="1" parent="1">
          <mxGeometry width="50" height="50" relative="1" as="geometry">
            <mxPoint x="465" y="355.5" as="sourcePoint" />
            <mxPoint x="470" y="390.5" as="targetPoint" />
            <Array as="points">
              <mxPoint x="510" y="355.5" />
              <mxPoint x="510" y="390.5" />
            </Array>
          </mxGeometry>
        </mxCell>
        <mxCell id="r41l6Ee3IsO7vTxfdCU9-4" value="CreateOfferRequest(FlightDTO)" style="edgeLabel;html=1;align=center;verticalAlign=middle;resizable=0;points=[];" vertex="1" connectable="0" parent="r41l6Ee3IsO7vTxfdCU9-3">
          <mxGeometry x="-0.6417" y="-1" relative="1" as="geometry">
            <mxPoint x="103" y="14" as="offset" />
          </mxGeometry>
        </mxCell>
        <mxCell id="r41l6Ee3IsO7vTxfdCU9-6" value="" style="endArrow=open;html=1;rounded=0;dashed=1;dashPattern=8 8;endFill=0;" edge="1" parent="1">
          <mxGeometry width="50" height="50" relative="1" as="geometry">
            <mxPoint x="455" y="313" as="sourcePoint" />
            <mxPoint x="455" y="343" as="targetPoint" />
            <Array as="points">
              <mxPoint x="400" y="313" />
              <mxPoint x="400" y="343" />
            </Array>
          </mxGeometry>
        </mxCell>
        <mxCell id="r41l6Ee3IsO7vTxfdCU9-7" value="OfferRequest" style="edgeLabel;html=1;align=center;verticalAlign=middle;resizable=0;points=[];" vertex="1" connectable="0" parent="1">
          <mxGeometry x="360.00428571428574" y="333" as="geometry" />
        </mxCell>
        <mxCell id="r41l6Ee3IsO7vTxfdCU9-8" value="" style="endArrow=open;html=1;rounded=0;dashed=1;dashPattern=8 8;endFill=0;" edge="1" parent="1">
          <mxGeometry width="50" height="50" relative="1" as="geometry">
            <mxPoint x="455" y="419" as="sourcePoint" />
            <mxPoint x="455" y="449" as="targetPoint" />
            <Array as="points">
              <mxPoint x="400" y="419" />
              <mxPoint x="400" y="449" />
            </Array>
          </mxGeometry>
        </mxCell>
        <mxCell id="r41l6Ee3IsO7vTxfdCU9-9" value="OfferRequest" style="edgeLabel;html=1;align=center;verticalAlign=middle;resizable=0;points=[];" vertex="1" connectable="0" parent="1">
          <mxGeometry x="360.00428571428574" y="439" as="geometry">
            <mxPoint x="3" y="-2" as="offset" />
          </mxGeometry>
        </mxCell>
        <mxCell id="r41l6Ee3IsO7vTxfdCU9-10" value="" style="endArrow=classic;html=1;rounded=0;" edge="1" parent="1">
          <mxGeometry width="50" height="50" relative="1" as="geometry">
            <mxPoint x="465" y="459" as="sourcePoint" />
            <mxPoint x="775" y="459" as="targetPoint" />
          </mxGeometry>
        </mxCell>
        <mxCell id="r41l6Ee3IsO7vTxfdCU9-11" value="PostOfferAsync(OfferRequest)" style="edgeLabel;html=1;align=center;verticalAlign=middle;resizable=0;points=[];" vertex="1" connectable="0" parent="r41l6Ee3IsO7vTxfdCU9-10">
          <mxGeometry x="-0.3552" y="-2" relative="1" as="geometry">
            <mxPoint x="44" y="-12" as="offset" />
          </mxGeometry>
        </mxCell>
        <mxCell id="r41l6Ee3IsO7vTxfdCU9-12" value="" style="endArrow=open;html=1;rounded=0;dashed=1;dashPattern=8 8;endFill=0;" edge="1" parent="1">
          <mxGeometry width="50" height="50" relative="1" as="geometry">
            <mxPoint x="775" y="543.5" as="sourcePoint" />
            <mxPoint x="465" y="543.5" as="targetPoint" />
          </mxGeometry>
        </mxCell>
        <mxCell id="r41l6Ee3IsO7vTxfdCU9-17" value="OfferResponse" style="edgeLabel;html=1;align=center;verticalAlign=middle;resizable=0;points=[];" vertex="1" connectable="0" parent="r41l6Ee3IsO7vTxfdCU9-12">
          <mxGeometry x="0.3075" y="-1" relative="1" as="geometry">
            <mxPoint x="38" y="-9" as="offset" />
          </mxGeometry>
        </mxCell>
        <mxCell id="r41l6Ee3IsO7vTxfdCU9-14" value="" style="endArrow=classic;html=1;rounded=0;" edge="1" parent="1">
          <mxGeometry width="50" height="50" relative="1" as="geometry">
            <mxPoint x="465" y="588.5" as="sourcePoint" />
            <mxPoint x="775" y="588.5" as="targetPoint" />
          </mxGeometry>
        </mxCell>
        <mxCell id="r41l6Ee3IsO7vTxfdCU9-15" value="PostOfferAsync(OfferRequest)" style="edgeLabel;html=1;align=center;verticalAlign=middle;resizable=0;points=[];" vertex="1" connectable="0" parent="r41l6Ee3IsO7vTxfdCU9-14">
          <mxGeometry x="-0.3552" y="-2" relative="1" as="geometry">
            <mxPoint x="44" y="-12" as="offset" />
          </mxGeometry>
        </mxCell>
        <mxCell id="r41l6Ee3IsO7vTxfdCU9-16" value="" style="endArrow=open;html=1;rounded=0;dashed=1;dashPattern=8 8;endFill=0;" edge="1" parent="1">
          <mxGeometry width="50" height="50" relative="1" as="geometry">
            <mxPoint x="775" y="669" as="sourcePoint" />
            <mxPoint x="465" y="669" as="targetPoint" />
          </mxGeometry>
        </mxCell>
        <mxCell id="r41l6Ee3IsO7vTxfdCU9-18" value="OfferResponse" style="edgeLabel;html=1;align=center;verticalAlign=middle;resizable=0;points=[];" vertex="1" connectable="0" parent="r41l6Ee3IsO7vTxfdCU9-16">
          <mxGeometry x="0.0441" y="-2" relative="1" as="geometry">
            <mxPoint y="-8" as="offset" />
          </mxGeometry>
        </mxCell>
        <mxCell id="r41l6Ee3IsO7vTxfdCU9-21" value="" style="endArrow=classic;html=1;rounded=0;" edge="1" parent="1">
          <mxGeometry width="50" height="50" relative="1" as="geometry">
            <mxPoint x="785" y="608" as="sourcePoint" />
            <mxPoint x="1095" y="608" as="targetPoint" />
          </mxGeometry>
        </mxCell>
        <mxCell id="r41l6Ee3IsO7vTxfdCU9-22" value="HttpClient.PostAsync()" style="edgeLabel;html=1;align=center;verticalAlign=middle;resizable=0;points=[];" vertex="1" connectable="0" parent="r41l6Ee3IsO7vTxfdCU9-21">
          <mxGeometry x="-0.3552" y="-2" relative="1" as="geometry">
            <mxPoint x="44" y="-12" as="offset" />
          </mxGeometry>
        </mxCell>
        <mxCell id="r41l6Ee3IsO7vTxfdCU9-25" value="" style="endArrow=open;html=1;rounded=0;dashed=1;dashPattern=8 8;endFill=0;" edge="1" parent="1">
          <mxGeometry width="50" height="50" relative="1" as="geometry">
            <mxPoint x="1095" y="648" as="sourcePoint" />
            <mxPoint x="785" y="648" as="targetPoint" />
          </mxGeometry>
        </mxCell>
        <mxCell id="r41l6Ee3IsO7vTxfdCU9-26" value="OfferResponse" style="edgeLabel;html=1;align=center;verticalAlign=middle;resizable=0;points=[];" vertex="1" connectable="0" parent="r41l6Ee3IsO7vTxfdCU9-25">
          <mxGeometry x="0.0441" y="-2" relative="1" as="geometry">
            <mxPoint y="-8" as="offset" />
          </mxGeometry>
        </mxCell>
        <mxCell id="r41l6Ee3IsO7vTxfdCU9-27" value="" style="endArrow=classic;html=1;rounded=0;" edge="1" parent="1">
          <mxGeometry width="50" height="50" relative="1" as="geometry">
            <mxPoint x="785" y="479" as="sourcePoint" />
            <mxPoint x="1095" y="479" as="targetPoint" />
          </mxGeometry>
        </mxCell>
        <mxCell id="r41l6Ee3IsO7vTxfdCU9-28" value="HttpClient.PostAsync()" style="edgeLabel;html=1;align=center;verticalAlign=middle;resizable=0;points=[];" vertex="1" connectable="0" parent="r41l6Ee3IsO7vTxfdCU9-27">
          <mxGeometry x="-0.3552" y="-2" relative="1" as="geometry">
            <mxPoint x="44" y="-12" as="offset" />
          </mxGeometry>
        </mxCell>
        <mxCell id="r41l6Ee3IsO7vTxfdCU9-29" value="" style="endArrow=open;html=1;rounded=0;dashed=1;dashPattern=8 8;endFill=0;" edge="1" parent="1">
          <mxGeometry width="50" height="50" relative="1" as="geometry">
            <mxPoint x="1095" y="519" as="sourcePoint" />
            <mxPoint x="785" y="519" as="targetPoint" />
          </mxGeometry>
        </mxCell>
        <mxCell id="r41l6Ee3IsO7vTxfdCU9-30" value="OfferResponse" style="edgeLabel;html=1;align=center;verticalAlign=middle;resizable=0;points=[];" vertex="1" connectable="0" parent="r41l6Ee3IsO7vTxfdCU9-29">
          <mxGeometry x="0.0441" y="-2" relative="1" as="geometry">
            <mxPoint y="-8" as="offset" />
          </mxGeometry>
        </mxCell>
        <mxCell id="r41l6Ee3IsO7vTxfdCU9-37" value="" style="html=1;points=[[0,0,0,0,5],[0,1,0,0,-5],[1,0,0,0,5],[1,1,0,0,-5]];perimeter=orthogonalPerimeter;outlineConnect=0;targetShapes=umlLifeline;portConstraint=eastwest;newEdgeStyle={&quot;curved&quot;:0,&quot;rounded&quot;:0};" vertex="1" parent="1">
          <mxGeometry x="775" y="589" width="10" height="80" as="geometry" />
        </mxCell>
        <mxCell id="r41l6Ee3IsO7vTxfdCU9-45" value="" style="html=1;points=[[0,0,0,0,5],[0,1,0,0,-5],[1,0,0,0,5],[1,1,0,0,-5]];perimeter=orthogonalPerimeter;outlineConnect=0;targetShapes=umlLifeline;portConstraint=eastwest;newEdgeStyle={&quot;curved&quot;:0,&quot;rounded&quot;:0};" vertex="1" parent="1">
          <mxGeometry x="1095" y="609" width="10" height="40" as="geometry" />
        </mxCell>
        <mxCell id="r41l6Ee3IsO7vTxfdCU9-46" value="" style="html=1;points=[[0,0,0,0,5],[0,1,0,0,-5],[1,0,0,0,5],[1,1,0,0,-5]];perimeter=orthogonalPerimeter;outlineConnect=0;targetShapes=umlLifeline;portConstraint=eastwest;newEdgeStyle={&quot;curved&quot;:0,&quot;rounded&quot;:0};" vertex="1" parent="1">
          <mxGeometry x="465" y="290" width="10" height="20" as="geometry" />
        </mxCell>
        <mxCell id="r41l6Ee3IsO7vTxfdCU9-48" value="" style="html=1;points=[[0,0,0,0,5],[0,1,0,0,-5],[1,0,0,0,5],[1,1,0,0,-5]];perimeter=orthogonalPerimeter;outlineConnect=0;targetShapes=umlLifeline;portConstraint=eastwest;newEdgeStyle={&quot;curved&quot;:0,&quot;rounded&quot;:0};" vertex="1" parent="1">
          <mxGeometry x="465" y="390" width="10" height="30" as="geometry" />
        </mxCell>
      </root>
    </mxGraphModel>
  </diagram>
</mxfile>
